<?xml version="1.0" encoding="utf-8"?>
<!-- Generator: Adobe Illustrator 24.1.2, SVG Export Plug-In . SVG Version: 6.00 Build 0)  -->
<svg version="1.1" id="Camada_1" xmlns="http://www.w3.org/2000/svg" xmlns:xlink="http://www.w3.org/1999/xlink" x="0px" y="0px"
	 viewBox="0 0 24 24" style="enable-background:new 0 0 24 24;" xml:space="preserve">
<circle cx="2.2" cy="19.1" r="1.8"/>
<g>
	<path d="M15.4,14.9l2.4,0.3c-0.3,1.7-0.9,3-2,3.9c-1.1,0.9-2.4,1.4-4,1.4c-2,0-3.6-0.6-4.8-1.9c-1.2-1.3-1.8-3.1-1.8-5.6
		c0-1.6,0.3-2.9,0.8-4.1c0.5-1.2,1.3-2.1,2.4-2.6c1.1-0.6,2.2-0.9,3.5-0.9c1.6,0,2.9,0.4,3.9,1.2c1,0.8,1.6,1.9,1.9,3.4l-2.4,0.4
		c-0.2-1-0.6-1.7-1.2-2.2c-0.6-0.5-1.3-0.7-2.1-0.7c-1.2,0-2.2,0.4-3,1.3C8.1,9.7,7.7,11.1,7.7,13c0,1.9,0.4,3.4,1.1,4.2
		s1.7,1.3,2.9,1.3c1,0,1.8-0.3,2.4-0.9C14.8,17.1,15.2,16.1,15.4,14.9z"/>
</g>
<path d="M16.6,20l4,4l4-4H16.6z"/>
</svg>
